<?xml version="1.0"?>
<svg xmlns="http://www.w3.org/2000/svg" id="Capa_1" enable-background="new 0 0 512 512" height="512px" viewBox="0 0 512 512" width="512px" class="hovered-paths"><g><g><path d="m432.736 176.736c0-97.453-79.283-176.736-176.736-176.736s-176.736 79.283-176.736 176.736c0 92.385 71.256 168.429 161.693 176.089v159.175h30.04v-159.171c-4.945.418-9.945.643-14.997.643-5.068 0-10.083-.227-15.043-.647v-67.526l-60.068-28.93 13.035-27.064 47.033 22.652v-30.49l-41.867-20.164 13.035-27.064 44.045 21.213 43.612-21.19 13.129 27.019-41.914 20.365v30.511l46.986-22.83 13.129 27.019-60.115 29.209v67.274c90.459-7.637 161.739-83.692 161.739-176.093z" data-original="#000000" class="hovered-path active-path" data-old_color="#000000" fill="#FFFFFF"/></g></g> </svg>
