<svg width="50" height="50" viewBox="0 0 50 50" fill="none" xmlns="http://www.w3.org/2000/svg">
<path d="M35.9375 6.25H14.0625C13.2337 6.25 12.4388 6.57924 11.8528 7.16529C11.2667 7.75134 10.9375 8.5462 10.9375 9.375V43.75C10.9376 44.0288 11.0124 44.3026 11.154 44.5428C11.2956 44.783 11.499 44.9809 11.7429 45.116C11.9868 45.2512 12.2625 45.3185 12.5412 45.3112C12.82 45.3038 13.0917 45.222 13.3281 45.0742L25 37.7793L36.6738 45.0742C36.9103 45.2215 37.1818 45.3029 37.4602 45.31C37.7387 45.3171 38.014 45.2496 38.2576 45.1146C38.5012 44.9795 38.7043 44.7818 38.8458 44.5419C38.9873 44.3019 39.0621 44.0285 39.0625 43.75V9.375C39.0625 8.5462 38.7333 7.75134 38.1472 7.16529C37.5612 6.57924 36.7663 6.25 35.9375 6.25Z" fill="#3D8160"/>
</svg>
