<svg width="342" height="255" viewBox="0 0 342 255" fill="none" xmlns="http://www.w3.org/2000/svg">
<g clip-path="url(#clip0_29_282)">
<path d="M116.41 179.13C131.182 179.13 143.158 167.143 143.158 152.355C143.158 137.567 131.182 125.58 116.41 125.58C101.637 125.58 89.6614 137.567 89.6614 152.355C89.6614 167.143 101.637 179.13 116.41 179.13Z" fill="#E5E5E5"/>
<path opacity="0.2" d="M96.6596 134.471C94.1646 140.313 93.8261 146.853 95.7047 152.922C97.5832 158.991 101.556 164.194 106.914 167.6C112.272 171.007 118.665 172.395 124.952 171.518C131.238 170.64 137.008 167.553 141.23 162.809C139.706 166.379 137.425 169.574 134.545 172.173C131.665 174.772 128.254 176.713 124.55 177.862C120.846 179.011 116.937 179.34 113.093 178.827C109.25 178.313 105.563 176.969 102.29 174.888C99.0166 172.807 96.2345 170.038 94.1362 166.774C92.0379 163.509 90.6738 159.827 90.1382 155.983C89.6026 152.138 89.9085 148.223 91.0345 144.509C92.1606 140.794 94.0799 137.369 96.6596 134.471Z" fill="black"/>
<path d="M116.483 152.355H116.557L117.88 228.267H115.087L116.483 152.355Z" fill="#CBCBCB"/>
<path d="M163.013 141.338C180.806 141.338 195.23 126.899 195.23 109.087C195.23 91.2757 180.806 76.8366 163.013 76.8366C145.219 76.8366 130.795 91.2757 130.795 109.087C130.795 126.899 145.219 141.338 163.013 141.338Z" fill="#E5E5E5"/>
<path opacity="0.2" d="M186.801 87.5463C189.806 94.5832 190.214 102.46 187.951 109.77C185.689 117.08 180.903 123.347 174.45 127.45C167.996 131.553 160.296 133.226 152.724 132.168C145.152 131.111 138.202 127.393 133.117 121.679C134.952 125.979 137.7 129.827 141.169 132.958C144.638 136.088 148.746 138.427 153.207 139.811C157.669 141.194 162.377 141.591 167.007 140.972C171.637 140.354 176.077 138.735 180.019 136.228C183.962 133.721 187.313 130.386 189.841 126.455C192.368 122.523 194.011 118.088 194.656 113.457C195.301 108.826 194.933 104.111 193.577 99.6366C192.22 95.1626 189.908 91.0372 186.801 87.5463Z" fill="black"/>
<path d="M162.924 109.087H162.836L161.242 200.523H164.606L162.924 109.087Z" fill="#CBCBCB"/>
<path d="M103.204 78.8779L107.578 75.3757C104.18 75.0004 102.783 76.8556 102.212 78.3241C99.5572 77.2206 96.667 78.6668 96.667 78.6668L105.419 81.8474C104.978 80.6669 104.209 79.6368 103.204 78.8779Z" fill="#CBCBCB"/>
<path d="M92.1768 48.6568L96.5512 45.1545C93.1529 44.7792 91.7566 46.6344 91.1852 48.1029C88.5303 46.9994 85.6401 48.4456 85.6401 48.4456L94.3925 51.6262C93.951 50.4457 93.1824 49.4156 92.1768 48.6568Z" fill="#CBCBCB"/>
<path d="M154.146 68.1959L158.52 64.6936C155.122 64.3183 153.725 66.1736 153.154 67.642C150.499 66.5385 147.609 67.9847 147.609 67.9847L156.361 71.1654C155.92 69.9848 155.151 68.9547 154.146 68.1959Z" fill="#CBCBCB"/>
<path d="M149.823 200.383C149.823 200.383 149.99 196.872 153.422 197.28L149.823 200.383Z" fill="#CBCBCB"/>
<path d="M173.132 200.383C173.132 200.383 173.299 196.872 176.73 197.28L173.132 200.383Z" fill="#CBCBCB"/>
<path d="M166.345 200.383C166.345 200.383 166.512 196.872 169.944 197.28L166.345 200.383Z" fill="#CBCBCB"/>
<path d="M143.579 200.383C143.579 200.383 143.412 196.872 139.981 197.28L143.579 200.383Z" fill="#CBCBCB"/>
<path d="M158.122 200.625C158.122 200.625 157.955 197.115 154.524 197.523L158.122 200.625Z" fill="#CBCBCB"/>
<path d="M104.742 227.96C104.742 227.96 104.909 224.449 108.341 224.857L104.742 227.96Z" fill="#CBCBCB"/>
<path d="M128.051 227.96C128.051 227.96 128.218 224.449 131.65 224.857L128.051 227.96Z" fill="#CBCBCB"/>
<path d="M121.264 227.96C121.264 227.96 121.431 224.449 124.863 224.857L121.264 227.96Z" fill="#CBCBCB"/>
<path d="M98.4985 227.96C98.4985 227.96 98.3311 224.449 94.8998 224.857L98.4985 227.96Z" fill="#CBCBCB"/>
<path d="M113.041 228.203C113.041 228.203 112.874 224.692 109.443 225.1L113.041 228.203Z" fill="#CBCBCB"/>
<path d="M281.604 63.3882H236.751V67.3892H281.604V63.3882Z" fill="#3F3D56"/>
<path d="M281.604 78.127H236.751V82.1279H281.604V78.127Z" fill="#3F3D56"/>
<path d="M281.604 91.3305H236.751V95.3314H281.604V91.3305Z" fill="#3F3D56"/>
<path d="M219.88 65.3887C219.88 64.3563 220.185 63.3471 220.758 62.4887C221.331 61.6303 222.146 60.9612 223.099 60.5661C224.052 60.171 225.1 60.0677 226.112 60.2691C227.123 60.4705 228.052 60.9676 228.782 61.6977C229.511 62.4277 230.008 63.3578 230.209 64.3704C230.41 65.383 230.307 66.4325 229.912 67.3863C229.517 68.3402 228.849 69.1554 227.991 69.729C227.134 70.3026 226.126 70.6087 225.094 70.6087C223.712 70.6072 222.386 70.0567 221.409 69.0781C220.431 68.0995 219.881 66.7727 219.88 65.3887Z" fill="#3D8160"/>
<path d="M219.88 80.1275C219.88 79.0951 220.185 78.0858 220.758 77.2274C221.331 76.369 222.146 75.6999 223.099 75.3048C224.052 74.9097 225.1 74.8064 226.112 75.0078C227.123 75.2092 228.052 75.7063 228.782 76.4364C229.511 77.1664 230.008 78.0965 230.209 79.1091C230.41 80.1217 230.307 81.1712 229.912 82.1251C229.517 83.0789 228.849 83.8941 227.991 84.4677C227.134 85.0413 226.126 85.3474 225.094 85.3474C223.712 85.3459 222.386 84.7954 221.409 83.8168C220.431 82.8382 219.881 81.5114 219.88 80.1275Z" fill="#3D8160"/>
<path d="M219.88 93.3309C219.88 92.2985 220.185 91.2893 220.758 90.4309C221.331 89.5725 222.146 88.9034 223.099 88.5083C224.052 88.1132 225.1 88.0099 226.112 88.2113C227.123 88.4127 228.052 88.9098 228.782 89.6399C229.511 90.3699 230.008 91.3 230.209 92.3126C230.41 93.3251 230.307 94.3747 229.912 95.3285C229.517 96.2824 228.849 97.0976 227.991 97.6712C227.134 98.2448 226.126 98.5509 225.094 98.5509C223.712 98.5494 222.386 97.9989 221.409 97.0203C220.431 96.0417 219.881 94.7149 219.88 93.3309Z" fill="#3D8160"/>
<path d="M175.924 100.529L175.265 100.016L192.149 78.2545H214.23V79.0901H192.557L175.924 100.529Z" fill="#3F3D56"/>
<path d="M44.8537 111.022H0V115.023H44.8537V111.022Z" fill="#3F3D56"/>
<path d="M44.8537 125.761H0V129.761H44.8537V125.761Z" fill="#3F3D56"/>
<path d="M44.8537 138.964H0V142.965H44.8537V138.964Z" fill="#3F3D56"/>
<path d="M56.5101 118.242C55.4788 118.242 54.4705 117.936 53.613 117.363C52.7554 116.789 52.0871 115.974 51.6924 115.02C51.2977 114.066 51.1944 113.017 51.3956 112.004C51.5968 110.991 52.0935 110.061 52.8228 109.331C53.5521 108.601 54.4812 108.104 55.4928 107.903C56.5043 107.701 57.5528 107.805 58.5057 108.2C59.4586 108.595 60.273 109.264 60.846 110.122C61.419 110.981 61.7248 111.99 61.7248 113.022C61.7248 113.708 61.5899 114.387 61.3279 115.02C61.0658 115.653 60.6817 116.229 60.1975 116.713C59.7132 117.198 59.1384 117.583 58.5057 117.845C57.873 118.107 57.1949 118.242 56.5101 118.242Z" fill="#3D8160"/>
<path d="M56.5101 132.981C55.4788 132.981 54.4706 132.675 53.613 132.101C52.7554 131.528 52.0871 130.712 51.6924 129.759C51.2977 128.805 51.1944 127.755 51.3956 126.743C51.5969 125.73 52.0935 124.8 52.8228 124.07C53.5521 123.34 54.4813 122.843 55.4928 122.641C56.5044 122.44 57.5529 122.543 58.5057 122.938C59.4586 123.334 60.273 124.003 60.846 124.861C61.419 125.719 61.7248 126.729 61.7248 127.761C61.7248 128.447 61.59 129.125 61.3279 129.759C61.0658 130.392 60.6817 130.967 60.1975 131.452C59.7132 131.937 59.1384 132.321 58.5057 132.584C57.873 132.846 57.1949 132.981 56.5101 132.981Z" fill="#3D8160"/>
<path d="M56.5101 146.184C55.4788 146.184 54.4706 145.878 53.613 145.305C52.7555 144.731 52.0871 143.916 51.6924 142.962C51.2977 142.008 51.1944 140.959 51.3956 139.946C51.5969 138.934 52.0935 138.003 52.8228 137.273C53.5521 136.543 54.4813 136.046 55.4928 135.845C56.5044 135.643 57.5529 135.747 58.5057 136.142C59.4586 136.537 60.273 137.206 60.846 138.064C61.419 138.923 61.7248 139.932 61.7248 140.965C61.7248 141.65 61.59 142.329 61.3279 142.962C61.0658 143.595 60.6817 144.171 60.1975 144.656C59.7133 145.14 59.1384 145.525 58.5057 145.787C57.873 146.049 57.1949 146.184 56.5101 146.184Z" fill="#3D8160"/>
<path d="M105.681 148.162L89.0469 126.724H67.3743V125.888H89.4556L89.5808 126.05L106.34 147.65L105.681 148.162Z" fill="#3F3D56"/>
<path d="M200.626 3.21954H155.772V7.22046H200.626V3.21954Z" fill="#3F3D56"/>
<path d="M200.626 17.9583H155.772V21.9592H200.626V17.9583Z" fill="#3F3D56"/>
<path d="M200.626 31.1617H155.772V35.1627H200.626V31.1617Z" fill="#3F3D56"/>
<path d="M138.901 5.21998C138.901 4.18757 139.207 3.17834 139.78 2.31992C140.353 1.46149 141.167 0.79244 142.12 0.397353C143.073 0.00226519 144.121 -0.101113 145.133 0.100302C146.145 0.301717 147.074 0.798873 147.803 1.5289C148.532 2.25893 149.029 3.18904 149.23 4.20162C149.431 5.21419 149.328 6.26376 148.933 7.21758C148.539 8.17141 147.87 8.98666 147.013 9.56023C146.155 10.1338 145.147 10.44 144.116 10.44C142.733 10.4384 141.408 9.88795 140.43 8.90935C139.452 7.93075 138.902 6.60393 138.901 5.21998Z" fill="#3D8160"/>
<path d="M138.901 19.9588C138.901 18.9263 139.207 17.9171 139.78 17.0587C140.353 16.2003 141.167 15.5312 142.12 15.1361C143.073 14.741 144.121 14.6377 145.133 14.8391C146.145 15.0405 147.074 15.5376 147.803 16.2677C148.532 16.9977 149.029 17.9278 149.23 18.9404C149.431 19.9529 149.328 21.0025 148.933 21.9563C148.539 22.9102 147.87 23.7254 147.013 24.299C146.155 24.8726 145.147 25.1787 144.116 25.1787C142.733 25.1772 141.408 24.6267 140.43 23.6481C139.452 22.6695 138.902 21.3427 138.901 19.9588Z" fill="#3D8160"/>
<path d="M138.901 33.1622C138.901 32.1298 139.207 31.1205 139.78 30.2621C140.353 29.4037 141.167 28.7346 142.12 28.3396C143.073 27.9445 144.121 27.8411 145.133 28.0425C146.145 28.2439 147.074 28.7411 147.803 29.4711C148.532 30.2011 149.029 31.1312 149.23 32.1438C149.431 33.1564 149.328 34.2059 148.933 35.1598C148.539 36.1136 147.87 36.9288 147.013 37.5024C146.155 38.076 145.147 38.3822 144.116 38.3822C142.733 38.3806 141.408 37.8302 140.43 36.8516C139.452 35.873 138.902 34.5461 138.901 33.1622Z" fill="#3D8160"/>
<path d="M94.945 40.3598L94.2859 39.8476L111.17 18.0857H133.252V18.9214H111.579L94.945 40.3598Z" fill="#3F3D56"/>
<path d="M316.165 252.09H313.348L312.008 241.211H316.166L316.165 252.09Z" fill="#FFB7B7"/>
<path d="M316.884 254.824L307.799 254.824V254.708C307.799 253.77 308.172 252.869 308.835 252.206C309.498 251.542 310.397 251.169 311.335 251.169L316.884 251.169L316.884 254.824Z" fill="#2F2E41"/>
<path d="M304.06 252.09H301.243L299.903 241.211H304.061L304.06 252.09Z" fill="#FFB7B7"/>
<path d="M304.779 254.824L295.694 254.824V254.708C295.694 253.77 296.067 252.869 296.73 252.206C297.393 251.542 298.292 251.169 299.23 251.169L304.779 251.169L304.779 254.824Z" fill="#2F2E41"/>
<path d="M297.646 180.72L293.829 186.797L300.237 248.118L306.934 248.524L308.342 195.562L310.691 223.871L309.763 248.524L316.658 248.858L320.755 213.091L323.839 184.803L317.787 179.162L297.646 180.72Z" fill="#2F2E41"/>
<path d="M315.491 134.245L305.055 134.663L295.386 182.415C295.386 182.415 311.103 190.222 317.471 183.125L321.298 180.318L315.491 134.245Z" fill="#3D8160"/>
<path d="M315.491 134.245L324.674 139.602L321.281 162.031L324.256 184.9L314.594 183.324C314.594 183.324 312.616 162.031 313.9 155.346C315.183 148.66 315.491 134.245 315.491 134.245Z" fill="#3F3D56"/>
<path d="M305.055 134.663L294.067 140.308L294.904 165.148L289.233 183.967C289.233 183.967 300.541 187.589 302.485 181.913C304.429 176.237 305.055 134.663 305.055 134.663Z" fill="#3F3D56"/>
<path d="M319.895 190.559C320.262 190.38 320.585 190.123 320.841 189.806C321.097 189.489 321.281 189.119 321.379 188.723C321.478 188.327 321.488 187.914 321.41 187.514C321.331 187.113 321.166 186.735 320.926 186.405L324.242 180.957L321.427 178.133L316.851 185.891C316.325 186.332 315.978 186.951 315.877 187.631C315.776 188.31 315.927 189.003 316.302 189.579C316.677 190.154 317.25 190.572 317.913 190.752C318.575 190.933 319.28 190.864 319.895 190.559Z" fill="#FFB7B7"/>
<path d="M319.908 142.657L324.286 139.184C324.286 139.184 328.426 142.576 328.324 145.827C328.222 149.078 329.462 166.396 329.462 166.396L322.63 186.98L317.542 182.906L323.502 166.836L318.805 153.124L319.908 142.657Z" fill="#3F3D56"/>
<path d="M291.604 191.529C291.267 191.3 290.983 191 290.774 190.65C290.565 190.3 290.435 189.908 290.393 189.502C290.352 189.096 290.399 188.686 290.533 188.3C290.667 187.915 290.884 187.564 291.168 187.271L288.651 181.41L291.836 179.011L295.274 187.337C295.734 187.847 295.99 188.509 295.995 189.196C295.999 189.883 295.752 190.548 295.3 191.065C294.847 191.582 294.221 191.914 293.54 192C292.859 192.085 292.17 191.918 291.604 191.529Z" fill="#FFB7B7"/>
<path d="M298.33 144.103L294.484 140.047C294.484 140.047 289.908 142.822 289.552 146.055C289.195 149.288 285.532 166.258 285.532 166.258L289.401 187.601L295.011 184.284L291.371 167.534L297.949 154.62L298.33 144.103Z" fill="#3F3D56"/>
<path d="M310.606 131.124C314.542 131.124 317.734 127.929 317.734 123.989C317.734 120.048 314.542 116.854 310.606 116.854C306.669 116.854 303.478 120.048 303.478 123.989C303.478 127.929 306.669 131.124 310.606 131.124Z" fill="#FFB7B7"/>
<path d="M308.882 117.653C308.163 117.526 307.45 117.854 306.783 118.153C306.116 118.452 305.371 118.736 304.672 118.521C304.35 118.399 304.062 118.202 303.831 117.946C303.6 117.69 303.434 117.382 303.346 117.049C303.176 116.381 303.116 115.69 303.166 115.003L303.925 115.442L303.407 114.57L310.803 113.752C313.041 113.504 315.551 113.332 317.291 114.761C318.178 115.567 318.824 116.605 319.157 117.757C320.634 122.282 322.31 128.875 314.731 130.22C313.675 129.927 315.398 126.035 315.38 124.938C315.363 123.841 314.76 122.608 313.677 122.44L312.884 123.544C313.391 122.837 311.59 120.543 311.142 120.095C310.739 119.753 310.375 119.367 310.057 118.944C309.699 118.395 309.695 117.797 308.882 117.653Z" fill="#2F2E41"/>
<path d="M341.583 255H266.865C266.754 255 266.648 254.956 266.57 254.878C266.492 254.799 266.448 254.693 266.448 254.582C266.448 254.471 266.492 254.365 266.57 254.287C266.648 254.208 266.754 254.164 266.865 254.164H341.583C341.693 254.164 341.799 254.208 341.878 254.287C341.956 254.365 342 254.471 342 254.582C342 254.693 341.956 254.799 341.878 254.878C341.799 254.956 341.693 255 341.583 255Z" fill="#CBCBCB"/>
</g>
<defs>
<clipPath id="clip0_29_282">
<rect width="342" height="255" fill="white"/>
</clipPath>
</defs>
</svg>
